<?xml version="1.0" encoding="utf-8"?>
<!-- Generator: Adobe Illustrator 19.1.0, SVG Export Plug-In . SVG Version: 6.00 Build 0)  -->
<!DOCTYPE svg PUBLIC "-//W3C//DTD SVG 1.1//EN" "http://www.w3.org/Graphics/SVG/1.1/DTD/svg11.dtd">
<svg version="1.1" id="Layer_1" xmlns="http://www.w3.org/2000/svg" xmlns:xlink="http://www.w3.org/1999/xlink" x="0px" y="0px"
	 viewBox="0 0 215.6 24.8" enable-background="new 0 0 215.6 24.8" xml:space="preserve">
<g>
	<g>
		<path fill="#9DCB3B" d="M10.8,4.6c0.2-0.1,0.4-0.2,0.7-0.2c0.2,0,0.4,0,0.5,0.1c0.2,0.1,0.3,0.2,0.4,0.3c0.1,0.1,0.2,0.3,0.3,0.4
			c0.1,0.2,0.1,0.3,0.1,0.5c0,0.5-0.2,0.9-0.7,1.2l-8.1,4.8l8.1,4.9c0.5,0.3,0.7,0.7,0.7,1.2c0,0.4-0.1,0.7-0.4,1
			c-0.3,0.3-0.6,0.4-1,0.4c-0.3,0-0.5-0.1-0.7-0.2l-10-6C0.2,12.8,0,12.4,0,11.9c0-0.5,0.2-0.9,0.7-1.2L10.8,4.6z"/>
		<path fill="#9DCB3B" d="M25.7,2.1l-8.2,20.4c-0.3,0.5-0.8,0.8-1.3,0.8c-0.4,0-0.7-0.1-1-0.4c-0.3-0.3-0.4-0.6-0.4-1
			c0-0.2,0-0.4,0.1-0.6l8.2-20.4c0.1-0.2,0.2-0.3,0.3-0.4c0.3-0.3,0.6-0.4,1-0.4c0.4,0,0.7,0.1,1,0.4c0.3,0.3,0.4,0.6,0.4,1
			C25.8,1.7,25.7,1.9,25.7,2.1z"/>
	</g>
	<g>
		<path fill="#FFFFFF" d="M43.7,15.7c0.2,0,0.4,0.1,0.5,0.2c0.1,0.1,0.2,0.3,0.2,0.5c0,0.2-0.1,0.4-0.2,0.5
			c-0.9,0.7-1.8,1.2-2.8,1.6s-2.1,0.5-3.2,0.5c-1.3,0-2.5-0.2-3.7-0.7c-1.1-0.5-2.2-1.2-3.1-2.1c-0.9-0.9-1.6-2-2.1-3.1
			c-0.5-1.1-0.7-2.4-0.7-3.7c0-2.6,0.9-4.9,2.8-6.7C33.4,0.9,35.6,0,38.2,0c2.3,0,4.3,0.7,6.1,2.2c0.1,0.1,0.2,0.3,0.2,0.5
			c0,0.2-0.1,0.4-0.2,0.5S44,3.4,43.8,3.4c-0.2,0-0.4-0.1-0.6-0.3c-1.4-1.1-3-1.7-4.9-1.7c-2.2,0-4.1,0.8-5.7,2.4
			c-1.6,1.6-2.4,3.5-2.4,5.7c0,2.2,0.8,4.1,2.4,5.7c1.6,1.6,3.5,2.4,5.7,2.4c1.9,0,3.6-0.6,5.1-1.8C43.4,15.8,43.5,15.7,43.7,15.7z"
			/>
		<path fill="#FFFFFF" d="M59.7,12.4c0,1.8-0.7,3.4-2,4.7c-1.3,1.3-2.9,2-4.7,2s-3.4-0.7-4.7-2c-1.3-1.3-2-2.9-2-4.7s0.7-3.4,2-4.7
			c1.3-1.3,2.9-2,4.7-2s3.4,0.7,4.7,2C59.1,9,59.7,10.6,59.7,12.4z M53,7.2c-1.4,0-2.7,0.5-3.7,1.5c-1,1-1.5,2.2-1.5,3.7
			c0,1.4,0.5,2.7,1.5,3.7c1,1,2.2,1.5,3.7,1.5s2.7-0.5,3.7-1.5c1-1,1.5-2.2,1.5-3.7c0-1.4-0.5-2.7-1.5-3.7C55.7,7.7,54.5,7.2,53,7.2
			z"/>
		<path fill="#FFFFFF" d="M73.5,0.7c0-0.2,0.1-0.4,0.2-0.5C73.9,0.1,74.1,0,74.3,0c0.2,0,0.4,0.1,0.5,0.2S75,0.5,75,0.7v11.7
			c0,1.8-0.7,3.4-2,4.7c-1.3,1.3-2.9,2-4.7,2c-1.8,0-3.4-0.7-4.7-2c-1.3-1.3-2-2.9-2-4.7s0.7-3.4,2-4.7c1.3-1.3,2.9-2,4.7-2
			c1.8,0,3.4,0.7,4.7,2l0.5,0.5V0.7z M73.5,12.4c0-1.4-0.5-2.7-1.5-3.7c-1-1-2.2-1.5-3.7-1.5c-1.4,0-2.7,0.5-3.7,1.5
			c-1,1-1.5,2.2-1.5,3.7c0,1.4,0.5,2.7,1.5,3.7c1,1,2.2,1.5,3.7,1.5c1.4,0,2.7-0.5,3.7-1.5C73,15.1,73.5,13.9,73.5,12.4z"/>
		<path fill="#FFFFFF" d="M87.4,16.2c0.2,0,0.4,0.1,0.5,0.2c0.1,0.1,0.2,0.3,0.2,0.5c0,0.2-0.1,0.4-0.2,0.5
			c-1.2,1.1-2.7,1.6-4.4,1.6c-1.8,0-3.4-0.7-4.7-2c-1.3-1.3-2-2.9-2-4.7s0.7-3.4,2-4.7c1.3-1.3,2.9-2,4.7-2s3.4,0.7,4.7,2
			c1.3,1.3,2,2.9,2,4.7c0,0.2-0.1,0.4-0.2,0.5s-0.3,0.2-0.5,0.2H78.4c0.2,1.2,0.7,2.2,1.5,2.9c1,1,2.2,1.5,3.7,1.5
			c0.7,0,1.3-0.1,1.8-0.3c0.6-0.2,1.1-0.5,1.5-0.9C87.1,16.3,87.2,16.2,87.4,16.2z M88.8,11.7c-0.2-1.2-0.7-2.2-1.5-2.9
			c-1-1-2.2-1.5-3.7-1.5c-1.4,0-2.7,0.5-3.7,1.5c-0.8,0.8-1.3,1.7-1.5,2.9H88.8z"/>
		<path fill="#FFFFFF" d="M94.6,8.5c-0.6-0.5-1-1.1-1.2-1.7S93,5.6,93,5c0-0.8,0.1-1.5,0.4-2.1c0.3-0.6,0.7-1.2,1.3-1.7h0
			C95.7,0.4,96.8,0,98,0c0.4,0,0.8,0,1.2,0.1c0.4,0.1,0.8,0.3,1.2,0.5c0.4,0.2,0.7,0.5,1,0.8c0.3,0.3,0.6,0.7,0.9,1.1
			c0.1,0.2,0.2,0.4,0.2,0.7c0,0.2,0,0.4-0.1,0.5c-0.1,0.2-0.2,0.3-0.3,0.4c-0.1,0.1-0.3,0.2-0.4,0.3c-0.2,0.1-0.3,0.1-0.5,0.1
			c-0.2,0-0.3,0-0.4-0.1c-0.1,0-0.2-0.1-0.3-0.2c-0.1-0.1-0.2-0.2-0.3-0.3c-0.1-0.1-0.2-0.2-0.3-0.4c-0.2-0.3-0.5-0.5-0.8-0.6
			S98.3,2.6,98,2.6c-0.3,0-0.6,0.1-0.9,0.2c-0.3,0.1-0.5,0.3-0.8,0.5c-0.2,0.2-0.4,0.5-0.5,0.8c-0.1,0.3-0.2,0.6-0.2,1
			c0,0.6,0.2,1.1,0.5,1.5c0.3,0.4,0.9,0.7,1.7,0.9c1.4,0.4,2.5,0.9,3.3,1.6c0.8,0.7,1.3,1.4,1.6,2.1c0.3,0.7,0.4,1.4,0.4,2.1
			c0,1.9-0.7,3.4-2.1,4.5h0c-1.1,0.9-2.4,1.4-3.8,1.4c-0.5,0-0.9-0.1-1.4-0.2c-0.5-0.1-0.9-0.3-1.4-0.5c-0.4-0.2-0.8-0.5-1.2-0.8
			c-0.4-0.3-0.7-0.7-1-1.1c-0.2-0.2-0.3-0.5-0.3-0.8c0-0.2,0-0.3,0.1-0.5c0.1-0.2,0.2-0.3,0.3-0.4c0.1-0.1,0.2-0.2,0.4-0.3
			c0.2-0.1,0.3-0.1,0.5-0.1c0.5,0,0.8,0.2,1.1,0.6c0.3,0.5,0.8,0.9,1.3,1.2c0.5,0.3,1,0.4,1.6,0.4c0.5,0,0.9-0.1,1.3-0.3
			c0.4-0.2,0.8-0.4,1.1-0.7s0.5-0.7,0.7-1.1c0.2-0.4,0.3-0.8,0.3-1.3c0-0.4-0.1-0.8-0.2-1.2c-0.2-0.4-0.5-0.8-0.9-1.1
			c-0.5-0.4-1.2-0.7-2.2-1C96.1,9.5,95.2,9,94.6,8.5z"/>
		<path fill="#FFFFFF" d="M106,5.7h0.6V1.2c0-0.3,0.1-0.6,0.4-0.9c0.2-0.2,0.5-0.4,0.9-0.4c0.3,0,0.6,0.1,0.9,0.4
			c0.2,0.2,0.4,0.5,0.4,0.9v4.5h1.5c0.3,0,0.6,0.1,0.9,0.4c0.2,0.2,0.4,0.5,0.4,0.9c0,0.4-0.1,0.6-0.4,0.9c-0.2,0.2-0.5,0.4-0.9,0.4
			h-1.5v6c0,1.6,0.8,2.4,2.4,2.4c0.3,0,0.6,0.1,0.9,0.4c0.2,0.2,0.4,0.5,0.4,0.9c0,0.4-0.1,0.6-0.4,0.9c-0.2,0.2-0.5,0.4-0.9,0.4
			c-3.3,0-4.9-1.6-4.9-4.9v-6H106c-0.3,0-0.6-0.1-0.9-0.4c-0.2-0.2-0.4-0.5-0.4-0.9c0-0.3,0.1-0.6,0.4-0.9
			C105.4,5.9,105.7,5.7,106,5.7z"/>
		<path fill="#FFFFFF" d="M116.8,7v0.2c0.6-0.5,1.2-0.8,1.9-1.1c0.7-0.3,1.4-0.4,2.2-0.4c0.3,0,0.7,0,1.1,0.1c0.4,0,0.8,0.1,1.1,0.3
			c0.3,0.1,0.6,0.3,0.8,0.5c0.2,0.2,0.3,0.5,0.3,0.8c0,0.2,0,0.3-0.1,0.5c-0.1,0.2-0.2,0.3-0.3,0.4c-0.1,0.1-0.2,0.2-0.4,0.3
			c-0.2,0.1-0.3,0.1-0.5,0.1c-0.2,0-0.3,0-0.5-0.1c-0.5-0.2-1-0.3-1.6-0.3c-0.6,0-1.1,0.1-1.6,0.3c-0.5,0.2-1,0.5-1.3,0.9
			c-0.4,0.4-0.7,0.8-0.9,1.3c-0.2,0.5-0.3,1.1-0.3,1.6v5.4c0,0.3-0.1,0.6-0.4,0.9c-0.2,0.2-0.5,0.4-0.9,0.4c-0.4,0-0.6-0.1-0.9-0.4
			c-0.2-0.2-0.4-0.5-0.4-0.9V7c0-0.3,0.1-0.6,0.4-0.9c0.2-0.2,0.5-0.4,0.9-0.4c0.3,0,0.6,0.1,0.9,0.4C116.7,6.3,116.8,6.6,116.8,7z"
			/>
		<path fill="#FFFFFF" d="M129.2,3.4c0,0.4-0.1,0.8-0.4,1s-0.6,0.4-1,0.4c-0.4,0-0.8-0.1-1-0.4s-0.4-0.6-0.4-1s0.1-0.8,0.4-1
			s0.6-0.4,1-0.4c0.4,0,0.8,0.1,1,0.4S129.2,2.9,129.2,3.4z M126.5,17.8V7c0-0.3,0.1-0.6,0.4-0.9c0.2-0.2,0.5-0.4,0.9-0.4
			c0.3,0,0.6,0.1,0.9,0.4c0.2,0.2,0.4,0.5,0.4,0.9v10.9c0,0.4-0.1,0.6-0.4,0.9c-0.2,0.2-0.5,0.4-0.9,0.4c-0.3,0-0.6-0.1-0.9-0.4
			C126.6,18.5,126.5,18.2,126.5,17.8z"/>
		<path fill="#FFFFFF" d="M134.1,7c1.1-0.8,2.3-1.2,3.7-1.2c0.8,0,1.6,0.2,2.4,0.5c0.8,0.3,1.4,0.8,2,1.3c0.6,0.6,1,1.2,1.4,2
			c0.3,0.8,0.5,1.6,0.5,2.4v5.9c0,0.4-0.1,0.6-0.4,0.9c-0.2,0.2-0.5,0.4-0.9,0.4c-0.4,0-0.6-0.1-0.9-0.4c-0.2-0.2-0.4-0.5-0.4-0.9
			V12c0-0.5-0.1-1-0.3-1.4c-0.2-0.5-0.5-0.8-0.8-1.2c-0.3-0.3-0.7-0.6-1.2-0.8c-0.5-0.2-0.9-0.3-1.4-0.3c-0.5,0-1,0.1-1.5,0.3
			c-0.4,0.2-0.8,0.5-1.2,0.8s-0.6,0.7-0.8,1.2c-0.2,0.5-0.3,0.9-0.3,1.4v5.9c0,0.4-0.1,0.6-0.4,0.9c-0.2,0.2-0.5,0.4-0.9,0.4
			c-0.3,0-0.6-0.1-0.9-0.4c-0.2-0.2-0.4-0.5-0.4-0.9V7c0-0.3,0.1-0.6,0.4-0.9c0.2-0.2,0.5-0.4,0.9-0.4c0.3,0,0.6,0.1,0.9,0.4
			C134,6.3,134.1,6.6,134.1,7z"/>
		<path fill="#FFFFFF" d="M156.8,17.6c-1.2,1-2.6,1.5-4.2,1.5c-1.8,0-3.4-0.7-4.7-2c-1.3-1.3-2-2.9-2-4.7s0.7-3.4,2-4.7
			c1.3-1.3,2.9-2,4.7-2c1.8,0,3.4,0.7,4.7,2c1.3,1.3,2,2.9,2,4.7v6.6c0,0.6-0.1,1.1-0.3,1.6c-0.2,0.5-0.4,1-0.7,1.4
			c-0.3,0.4-0.7,0.8-1.1,1.2c-0.4,0.3-0.9,0.6-1.4,0.9c-0.5,0.2-1,0.4-1.5,0.5c-0.5,0.1-1.1,0.2-1.6,0.2c-0.6,0-1.3-0.1-1.9-0.2
			c-0.6-0.2-1.2-0.4-1.7-0.7c-0.5-0.3-1.1-0.7-1.5-1.2c-0.5-0.5-0.8-1-1.2-1.6c-0.1-0.2-0.2-0.4-0.2-0.7c0-0.4,0.1-0.7,0.4-0.9
			c0.2-0.2,0.5-0.4,0.9-0.4c0.2,0,0.4,0.1,0.6,0.2c0.2,0.1,0.4,0.4,0.6,0.7c0.3,0.4,0.5,0.7,0.7,0.9c0.9,0.9,2,1.4,3.3,1.4
			c1.3,0,2.4-0.4,3.3-1.3c0.5-0.7,0.8-1.3,0.8-1.9V17.6z M152.6,8.2c-0.6,0-1.1,0.1-1.6,0.3c-0.5,0.2-1,0.5-1.3,0.9
			c-0.4,0.4-0.7,0.8-0.9,1.3c-0.2,0.5-0.3,1.1-0.3,1.6c0,0.6,0.1,1.1,0.3,1.6c0.2,0.5,0.5,1,0.9,1.3c0.4,0.4,0.8,0.7,1.3,0.9
			c0.5,0.2,1.1,0.3,1.6,0.3c0.6,0,1.1-0.1,1.6-0.3c0.5-0.2,1-0.5,1.3-0.9c0.4-0.4,0.7-0.8,0.9-1.3c0.2-0.5,0.3-1,0.3-1.6
			c0-0.6-0.1-1.1-0.3-1.6c-0.2-0.5-0.5-0.9-0.9-1.3c-0.4-0.4-0.8-0.7-1.3-0.9C153.7,8.3,153.2,8.2,152.6,8.2z"/>
		<path fill="#FFFFFF" d="M171.4,15.3c0.4,0,0.7,0.1,0.9,0.4c0.2,0.2,0.4,0.5,0.4,0.9c0,0.4-0.1,0.6-0.4,0.9
			c-1.2,1.1-2.7,1.6-4.4,1.6c-1.8,0-3.4-0.7-4.7-2c-1.3-1.3-2-2.9-2-4.7s0.7-3.4,2-4.7c1.3-1.3,2.9-2,4.7-2c1.8,0,3.4,0.7,4.7,2
			c0.7,0.6,1.1,1.4,1.5,2.2c0.3,0.8,0.5,1.6,0.5,2.6c0,0.4-0.1,0.7-0.4,0.9c-0.2,0.2-0.5,0.4-0.9,0.4h-9.5c0.1,0.4,0.3,0.8,0.6,1.2
			c0.3,0.4,0.6,0.7,0.9,0.9c0.4,0.3,0.7,0.5,1.2,0.6c0.4,0.1,0.9,0.2,1.3,0.2c0.5,0,1-0.1,1.4-0.2c0.4-0.2,0.8-0.4,1.2-0.7
			C170.8,15.5,171.1,15.3,171.4,15.3z M171.9,11.2c-0.1-0.4-0.3-0.8-0.6-1.2c-0.3-0.4-0.6-0.7-0.9-0.9c-0.4-0.3-0.7-0.5-1.2-0.6
			c-0.4-0.1-0.9-0.2-1.3-0.2c-0.5,0-0.9,0.1-1.3,0.2c-0.4,0.1-0.8,0.3-1.2,0.6c-0.4,0.3-0.7,0.6-0.9,0.9c-0.3,0.4-0.5,0.8-0.6,1.2
			H171.9z"/>
		<path fill="#FFFFFF" d="M178.9,7v0.2c0.6-0.5,1.2-0.8,1.9-1.1c0.7-0.3,1.4-0.4,2.2-0.4c0.4,0,0.7,0,1.1,0.1c0.4,0,0.8,0.1,1.1,0.3
			s0.6,0.3,0.8,0.5c0.2,0.2,0.3,0.5,0.3,0.8c0,0.2,0,0.3-0.1,0.5c-0.1,0.2-0.2,0.3-0.3,0.4c-0.1,0.1-0.2,0.2-0.4,0.3
			s-0.3,0.1-0.5,0.1c-0.2,0-0.3,0-0.5-0.1c-0.5-0.2-1-0.3-1.6-0.3c-0.6,0-1.1,0.1-1.6,0.3c-0.5,0.2-1,0.5-1.3,0.9
			c-0.4,0.4-0.7,0.8-0.9,1.3c-0.2,0.5-0.3,1.1-0.3,1.6v5.4c0,0.3-0.1,0.6-0.4,0.9c-0.2,0.2-0.5,0.4-0.9,0.4c-0.4,0-0.6-0.1-0.9-0.4
			c-0.2-0.2-0.4-0.5-0.4-0.9V7c0-0.3,0.1-0.6,0.4-0.9c0.2-0.2,0.5-0.4,0.9-0.4c0.3,0,0.6,0.1,0.9,0.4C178.8,6.3,178.9,6.6,178.9,7z"
			/>
		<path fill="#FFFFFF" d="M190.4,12.7c-0.7-0.3-1.3-0.6-1.6-0.9h0c-0.6-0.6-0.9-1.3-0.9-2.2c0-0.6,0.2-1.2,0.5-1.6
			c0.3-0.5,0.7-0.9,1.3-1.2c0.5-0.3,1.1-0.6,1.7-0.8c0.6-0.2,1.3-0.3,2-0.3c2,0,3.7,0.8,5.1,2.4c0.2,0.2,0.3,0.5,0.3,0.8
			c0,0.4-0.1,0.7-0.4,0.9c-0.2,0.2-0.5,0.4-0.9,0.4c-0.3,0-0.5-0.1-0.7-0.2c-0.2-0.1-0.4-0.3-0.5-0.5c-0.8-0.8-1.8-1.2-3-1.2
			c-1.1,0-2.1,0.4-2.7,1.1c-0.1,0.1-0.2,0.3-0.2,0.5c0,0.2,0.1,0.4,0.3,0.5l5.6,1.8c0.8,0.3,1.3,0.6,1.6,0.9h0
			c0.6,0.6,0.9,1.3,0.9,2.2c0,0.6-0.2,1.2-0.5,1.6c-0.3,0.5-0.7,0.9-1.3,1.2c-0.5,0.3-1.1,0.6-1.7,0.8c-0.6,0.2-1.3,0.3-1.9,0.3
			c-2,0-3.7-0.8-5.1-2.4c-0.2-0.2-0.3-0.5-0.3-0.8c0-0.4,0.1-0.7,0.4-0.9c0.2-0.2,0.5-0.4,0.9-0.4c0.3,0,0.5,0.1,0.7,0.2
			c0.2,0.2,0.4,0.3,0.5,0.4c0.8,0.8,1.8,1.2,3,1.2c1.1,0,2.1-0.4,2.7-1.1c0.1-0.1,0.2-0.3,0.2-0.5c0-0.2-0.1-0.4-0.3-0.5L190.4,12.7
			z"/>
	</g>
	<g>
		<path fill="#9DCB3B" d="M214.9,10.7c0.5,0.3,0.7,0.7,0.7,1.2c0,0.5-0.2,0.9-0.7,1.2l-10,6c-0.2,0.1-0.4,0.2-0.7,0.2
			c-0.4,0-0.7-0.1-1-0.4c-0.3-0.3-0.4-0.6-0.4-1c0-0.5,0.2-0.9,0.7-1.2l8.1-4.9l-8.1-4.8c-0.5-0.3-0.7-0.7-0.7-1.2
			c0-0.2,0-0.4,0.1-0.5c0.1-0.2,0.2-0.3,0.3-0.4c0.1-0.1,0.3-0.2,0.4-0.3c0.2-0.1,0.3-0.1,0.5-0.1c0.3,0,0.5,0.1,0.7,0.2L214.9,10.7
			z"/>
	</g>
</g>
</svg>
